<svg width="88" height="24" viewBox="0 0 88 24" fill="none" xmlns="http://www.w3.org/2000/svg">
<path d="M0.935324 17.6225C3.09917 12.3004 5.61561 7.15472 8.47972 2.17804C10.0275 -0.510705 14.3433 1.77723 12.7917 4.47276C10.4889 8.46922 8.4197 12.5779 6.56837 16.7942C6.78168 16.8223 6.99155 16.8484 7.20142 16.8744C7.08089 16.0576 7.34163 15.1846 8.1831 14.5699C31.6553 -2.51181 64.3816 -1.05338 86.8682 17.7036C89.2883 19.7213 85.9957 23.2458 83.5874 21.2395C63.205 4.23634 33.9832 2.94899 12.4331 17.5444C14.5013 17.8101 16.5662 18.0738 18.6344 18.3395C21.7413 18.7384 20.6272 23.4347 17.5396 23.0424C12.5409 22.3982 7.54373 21.7594 2.54311 21.1186C0.838068 20.8996 0.414679 18.898 0.935324 17.6225Z" fill="#594F43"/>
</svg>
