<svg width="130" height="26" viewBox="0 0 130 26" fill="none" xmlns="http://www.w3.org/2000/svg">
<path d="M1.168 4.648C1.50933 4.43467 1.89333 4.328 2.32 4.328C2.74667 4.328 3.01333 4.57333 3.12 5.064C3.14133 7.53867 3.184 11.24 3.248 16.168C3.248 19.176 3.16267 21.7253 2.992 23.816C2.94933 24.136 2.74667 24.424 2.384 24.68C2.04267 24.9147 1.69067 25.032 1.328 25.032C0.730667 25.032 0.432 24.7227 0.432 24.104C0.645333 21.9707 0.752 19.3253 0.752 16.168L0.56 5.416C0.645334 5.11733 0.848 4.86133 1.168 4.648ZM8.69925 1.704C8.69925 1.40533 8.80592 1.16 9.01925 0.967999C9.25392 0.775998 9.50992 0.679998 9.78725 0.679998C10.0859 0.679998 10.3526 0.786665 10.5873 0.999998C10.8433 1.192 10.9713 1.45867 10.9713 1.8C10.9713 2.97333 10.7579 4.104 10.3313 5.192C9.90458 6.28 9.33925 6.824 8.63525 6.824C7.93125 6.824 7.57925 6.46133 7.57925 5.736C7.57925 5.43733 7.76058 4.904 8.12325 4.136C8.50725 3.368 8.69925 2.55733 8.69925 1.704ZM16.8825 25.032C16.3278 25.032 15.9972 24.7227 15.8905 24.104C15.8905 19.7947 15.6345 15.9547 15.1225 12.584C15.1225 12.1573 15.2718 11.7733 15.5705 11.432C15.8905 11.0907 16.2425 10.92 16.6265 10.92C17.0318 10.92 17.3305 11.144 17.5225 11.592C18.3118 10.5467 19.3678 10.024 20.6905 10.024C22.3758 10.024 23.6772 10.8347 24.5945 12.456C25.6612 10.92 27.0692 10.152 28.8185 10.152C30.5892 10.152 31.9118 10.856 32.7865 12.264C33.3625 13.1387 33.7678 14.2907 34.0025 15.72C34.2372 17.1493 34.3545 19.176 34.3545 21.8C34.3545 22.824 34.2478 23.624 34.0345 24.2C33.8212 24.7547 33.3732 25.032 32.6905 25.032C32.1358 25.032 31.8585 24.68 31.8585 23.976L31.9545 19.976C31.9545 15.176 30.7065 12.776 28.2105 12.776C27.4212 12.776 26.8665 13.0533 26.5465 13.608C26.1838 14.2693 25.9705 14.9627 25.9065 15.688C25.8212 16.968 25.7785 18.1307 25.7785 19.176V23.816C25.7785 24.1573 25.6078 24.4453 25.2665 24.68C24.9252 24.9147 24.5732 25.032 24.2105 25.032C23.7412 25.032 23.4425 24.7227 23.3145 24.104L23.4105 17.48C23.4105 15.1333 23.0158 13.672 22.2265 13.096C21.8425 12.8187 21.2558 12.68 20.4665 12.68C19.6985 12.68 19.1225 12.968 18.7385 13.544C18.3758 14.12 18.1945 15.048 18.1945 16.328L18.3865 22.28C18.3865 24.1147 17.8852 25.032 16.8825 25.032ZM54.9995 4.072C56.4288 4.072 58.0075 4.34933 59.7355 4.904C60.1195 5.20267 60.3115 5.53333 60.3115 5.896C60.3115 6.23733 60.1302 6.54667 59.7675 6.824C59.4262 7.08 59.0315 7.208 58.5835 7.208C57.4315 6.90933 56.3542 6.76 55.3515 6.76C53.0475 6.76 51.2982 7.44267 50.1035 8.808C48.9088 10.1733 48.3115 12.2 48.3115 14.888C48.3115 17.576 49.0155 19.6773 50.4235 21.192C51.1488 21.9813 52.0128 22.376 53.0155 22.376C54.0182 22.376 55.6182 21.8427 57.8155 20.776C58.5835 20.4133 59.0955 20.232 59.3515 20.232C59.9062 20.232 60.1835 20.52 60.1835 21.096C60.1835 21.672 59.9168 22.152 59.3835 22.536C57.5488 23.496 56.1195 24.1467 55.0955 24.488C54.0715 24.808 53.1862 24.968 52.4395 24.968C50.9035 24.968 49.5915 24.4027 48.5035 23.272C46.5622 21.1813 45.5915 18.3333 45.5915 14.728C45.5915 11.1013 46.5088 8.424 48.3435 6.696C50.1995 4.94667 52.4182 4.072 54.9995 4.072ZM67.0587 14.632L67.3147 22.184C67.3147 23.1227 67.2721 23.6667 67.1867 23.816C67.1441 24.2 67.0161 24.4987 66.8027 24.712C66.6107 24.9253 66.2267 25.032 65.6507 25.032C65.3734 25.032 65.1494 24.8613 64.9787 24.52C64.8081 24.1573 64.7121 23.752 64.6907 23.304C64.5414 19.5493 64.3387 16.0293 64.0827 12.744C63.8481 9.43733 63.7307 6.36533 63.7307 3.528C63.7307 3.08 63.8801 2.728 64.1787 2.472C64.4774 2.216 64.8294 2.088 65.2347 2.088C65.8321 2.088 66.1841 2.6 66.2907 3.624C66.4187 4.648 66.4934 5.928 66.5147 7.464C66.5574 9 66.6001 10.12 66.6427 10.824C67.7094 10.2693 68.7761 9.992 69.8427 9.992C72.3174 9.992 73.8854 11.08 74.5467 13.256C74.9307 14.4933 75.1227 16.0827 75.1227 18.024C75.1227 18.664 75.0587 19.6773 74.9307 21.064C74.8241 22.4293 74.7601 23.3147 74.7387 23.72C74.7174 24.1253 74.5361 24.4453 74.1947 24.68C73.8747 24.8933 73.5227 25 73.1387 25C72.5414 25 72.2427 24.68 72.2427 24.04L72.4667 18.472C72.4667 18.0027 72.4454 17.224 72.4027 16.136C72.3601 15.048 72.1361 14.184 71.7307 13.544C71.3467 12.904 70.6641 12.584 69.6827 12.584C67.9334 12.584 67.0587 13.2667 67.0587 14.632ZM82.3202 10.184C83.4509 10.184 84.5282 10.5147 85.5522 11.176C86.5762 11.8373 87.0882 12.6587 87.0882 13.64C87.0882 14.6 86.6722 15.5387 85.8402 16.456C85.0082 17.352 83.8989 17.896 82.5122 18.088C81.9149 18.1733 81.0189 18.216 79.8242 18.216C80.0589 20.0293 80.5176 21.224 81.2002 21.8C81.4136 22.0347 81.7016 22.152 82.0642 22.152C83.3869 22.152 84.4962 21.736 85.3922 20.904C86.2882 20.0507 86.9282 19.624 87.3122 19.624C87.4829 19.624 87.7389 19.784 88.0802 20.104C88.4216 20.424 88.5922 20.7227 88.5922 21C88.5922 21.5547 87.9202 22.3547 86.5762 23.4C85.9789 23.8907 85.2536 24.3067 84.4002 24.648C83.5682 24.968 82.7896 25.128 82.0642 25.128C80.2082 25.128 78.8429 23.9333 77.9682 21.544C77.4136 20.072 77.1362 18.4507 77.1362 16.68C77.1362 14.9093 77.5522 13.384 78.3842 12.104C79.2162 10.824 80.5282 10.184 82.3202 10.184ZM82.4802 12.392C81.6696 12.392 80.9762 12.8507 80.4002 13.768C80.1869 14.088 79.9842 14.8133 79.7922 15.944C82.7789 15.944 84.2722 15.208 84.2722 13.736C84.2722 12.84 83.6749 12.392 82.4802 12.392ZM95.7103 10.184C96.8409 10.184 97.9183 10.5147 98.9423 11.176C99.9663 11.8373 100.478 12.6587 100.478 13.64C100.478 14.6 100.062 15.5387 99.2303 16.456C98.3983 17.352 97.2889 17.896 95.9023 18.088C95.3049 18.1733 94.4089 18.216 93.2143 18.216C93.4489 20.0293 93.9076 21.224 94.5903 21.8C94.8036 22.0347 95.0916 22.152 95.4543 22.152C96.7769 22.152 97.8863 21.736 98.7823 20.904C99.6783 20.0507 100.318 19.624 100.702 19.624C100.873 19.624 101.129 19.784 101.47 20.104C101.812 20.424 101.982 20.7227 101.982 21C101.982 21.5547 101.31 22.3547 99.9663 23.4C99.3689 23.8907 98.6436 24.3067 97.7903 24.648C96.9583 24.968 96.1796 25.128 95.4543 25.128C93.5983 25.128 92.2329 23.9333 91.3583 21.544C90.8036 20.072 90.5263 18.4507 90.5263 16.68C90.5263 14.9093 90.9423 13.384 91.7743 12.104C92.6063 10.824 93.9183 10.184 95.7103 10.184ZM95.8703 12.392C95.0596 12.392 94.3663 12.8507 93.7903 13.768C93.5769 14.088 93.3743 14.8133 93.1823 15.944C96.1689 15.944 97.6623 15.208 97.6623 13.736C97.6623 12.84 97.0649 12.392 95.8703 12.392ZM115.916 23.56C115.916 24.5627 115.458 25.064 114.54 25.064C114.156 25.064 113.634 24.1253 112.972 22.248C112.311 20.3493 111.426 18.888 110.316 17.864C110.21 18.0133 109.751 18.44 108.94 19.144C108.151 19.8267 107.682 20.2427 107.532 20.392V23.592C107.49 23.912 107.436 24.1573 107.372 24.328C107.308 24.4987 107.159 24.6587 106.924 24.808C106.711 24.9573 106.412 25.032 106.028 25.032C105.452 25.032 105.164 24.68 105.164 23.976C105.164 21.992 105.079 18.92 104.908 14.76C104.738 10.5787 104.652 6.83467 104.652 3.528C104.652 3.12267 104.812 2.80267 105.132 2.568C105.474 2.33333 105.826 2.216 106.188 2.216C106.679 2.216 106.978 2.52533 107.084 3.144V8.808C107.084 9.49067 107.095 10.0027 107.116 10.344C107.138 10.6853 107.159 11.1973 107.18 11.88C107.223 13.288 107.298 14.8773 107.404 16.648C108.023 16.1787 108.812 15.4427 109.772 14.44C110.754 13.416 111.49 12.5413 111.98 11.816C112.748 10.6 113.452 9.992 114.092 9.992C114.263 9.992 114.434 10.0347 114.604 10.12C115.052 10.376 115.276 10.6747 115.276 11.016C115.276 11.3573 115.127 11.8053 114.828 12.36C114.06 13.6827 113.175 14.888 112.172 15.976C113.132 17.0427 114.092 18.568 115.052 20.552C115.628 21.832 115.916 22.8347 115.916 23.56ZM124.078 10.088C125.614 10.088 126.872 10.824 127.854 12.296C128.856 13.768 129.358 15.5387 129.358 17.608C129.358 19.656 128.846 21.4053 127.822 22.856C126.819 24.3067 125.475 25.032 123.79 25.032C122.126 25.032 120.782 24.296 119.758 22.824C118.734 21.3307 118.222 19.6773 118.222 17.864C118.222 15.5387 118.691 13.6827 119.63 12.296C120.632 10.824 122.115 10.088 124.078 10.088ZM123.694 12.712C122.798 12.712 122.062 13.1813 121.486 14.12C120.91 15.0587 120.622 16.0507 120.622 17.096C120.622 18.7173 120.942 19.9547 121.582 20.808C122.222 21.6613 122.947 22.088 123.758 22.088C125.208 22.088 126.136 21.4587 126.542 20.2C126.712 19.6027 126.798 18.856 126.798 17.96C126.798 14.4613 125.763 12.712 123.694 12.712Z" fill="#594F43"/>
</svg>
